<svg width="20" height="19" viewBox="0 0 20 19" fill="none" xmlns="http://www.w3.org/2000/svg">
<path d="M1.22554 1.01827C1.34495 0.898561 1.4868 0.803585 1.64297 0.738783C1.79913 0.67398 1.96655 0.640625 2.13563 0.640625C2.30471 0.640625 2.47213 0.67398 2.6283 0.738783C2.78446 0.803585 2.92631 0.898561 3.04572 1.01827L9.84824 7.82336L16.6508 1.01827C16.7703 0.898754 16.9122 0.80395 17.0683 0.73927C17.2245 0.674589 17.3918 0.641298 17.5608 0.641298C17.7299 0.641298 17.8972 0.674589 18.0534 0.73927C18.2095 0.80395 18.3514 0.898754 18.4709 1.01827C18.5904 1.13778 18.6852 1.27967 18.7499 1.43582C18.8146 1.59197 18.8479 1.75934 18.8479 1.92836C18.8479 2.09738 18.8146 2.26474 18.7499 2.42089C18.6852 2.57705 18.5904 2.71893 18.4709 2.83844L11.6658 9.64096L18.4709 16.4435C18.5904 16.563 18.6852 16.7049 18.7499 16.861C18.8146 17.0172 18.8479 17.1845 18.8479 17.3536C18.8479 17.5226 18.8146 17.69 18.7499 17.8461C18.6852 18.0023 18.5904 18.1441 18.4709 18.2637C18.3514 18.3832 18.2095 18.478 18.0534 18.5427C17.8972 18.6073 17.7299 18.6406 17.5608 18.6406C17.3918 18.6406 17.2245 18.6073 17.0683 18.5427C16.9122 18.478 16.7703 18.3832 16.6508 18.2637L9.84824 11.4586L3.04572 18.2637C2.92621 18.3832 2.78432 18.478 2.62817 18.5427C2.47202 18.6073 2.30465 18.6406 2.13563 18.6406C1.96661 18.6406 1.79925 18.6073 1.6431 18.5427C1.48694 18.478 1.34506 18.3832 1.22554 18.2637C1.10603 18.1441 1.01123 18.0023 0.946545 17.8461C0.881864 17.69 0.848573 17.5226 0.848573 17.3536C0.848573 17.1845 0.881864 17.0172 0.946545 16.861C1.01123 16.7049 1.10603 16.563 1.22554 16.4435L8.03063 9.64096L1.22554 2.83844C1.10584 2.71904 1.01086 2.57719 0.946058 2.42102C0.881256 2.26485 0.8479 2.09744 0.8479 1.92836C0.8479 1.75928 0.881256 1.59186 0.946058 1.43569C1.01086 1.27952 1.10584 1.13767 1.22554 1.01827Z" fill="white"/>
</svg>
