<svg width="26" height="30" viewBox="0 0 26 30" fill="none" xmlns="http://www.w3.org/2000/svg">
<path d="M16.35 1.96654C16.1367 1.7922 15.8909 1.6619 15.6269 1.58318C15.3628 1.50447 15.0858 1.4789 14.8119 1.50796C14.5379 1.53703 14.2724 1.62014 14.0308 1.7525C13.7891 1.88485 13.5762 2.06382 13.4042 2.27904L7.37083 9.83738H10.0375L15.0312 3.57904L16.6354 4.88946L12.6146 9.83738H15.2979L18.25 6.20404L21.8292 9.12696L21.2083 9.83738H21.8333C22.4546 9.83672 23.0725 9.92871 23.6667 10.1103C23.8936 9.68452 23.9658 9.19318 23.8708 8.72014C23.7758 8.2471 23.5196 7.82169 23.1458 7.51654L16.35 1.96654ZM3.08333 10.879C3.08333 10.6028 3.19308 10.3378 3.38843 10.1425C3.58378 9.94712 3.84873 9.83738 4.125 9.83738H5.2875L6.94375 7.75404H4.125C3.2962 7.75404 2.50134 8.08328 1.91529 8.66933C1.32924 9.25538 1 10.0502 1 10.879V23.379C1 24.7604 1.54873 26.0851 2.52549 27.0619C3.50224 28.0386 4.827 28.5874 6.20833 28.5874H21.8333C22.9384 28.5874 23.9982 28.1484 24.7796 27.367C25.561 26.5856 26 25.5258 26 24.4207V16.0874C26 14.9823 25.561 13.9225 24.7796 13.1411C23.9982 12.3597 22.9384 11.9207 21.8333 11.9207H4.125C3.84873 11.9207 3.58378 11.811 3.38843 11.6156C3.19308 11.4203 3.08333 11.1553 3.08333 10.879ZM18.7083 20.254H20.7917C21.0679 20.254 21.3329 20.3638 21.5282 20.5591C21.7236 20.7545 21.8333 21.0194 21.8333 21.2957C21.8333 21.572 21.7236 21.8369 21.5282 22.0323C21.3329 22.2276 21.0679 22.3374 20.7917 22.3374H18.7083C18.4321 22.3374 18.1671 22.2276 17.9718 22.0323C17.7764 21.8369 17.6667 21.572 17.6667 21.2957C17.6667 21.0194 17.7764 20.7545 17.9718 20.5591C18.1671 20.3638 18.4321 20.254 18.7083 20.254Z" fill="#1A73E8"/>
</svg>
