<svg width="30" height="31" viewBox="0 0 30 31" fill="none" xmlns="http://www.w3.org/2000/svg">
<path d="M19.05 2.5752H14.1825C11.9775 2.5752 10.23 2.5752 8.86375 2.7602C7.45625 2.9502 6.3175 3.3502 5.42 4.25145C4.52125 5.1527 4.1225 6.29645 3.93375 7.70895C3.75 9.08145 3.75 10.8352 3.75 13.0489V20.3464C3.75 22.2314 4.9 23.8464 6.53375 24.5239C6.45 23.3864 6.45 21.7927 6.45 20.4652V14.2027C6.45 12.6014 6.45 11.2202 6.5975 10.1152C6.75625 8.93019 7.11375 7.7952 8.03125 6.87395C8.94875 5.9527 10.08 5.59395 11.26 5.43395C12.36 5.28645 13.735 5.28645 15.3312 5.28645H19.1687C20.7637 5.28645 22.1362 5.28645 23.2375 5.43395C22.9076 4.59181 22.3317 3.86862 21.5847 3.35867C20.8377 2.84873 19.9544 2.5757 19.05 2.5752Z" fill="#1A73E8"/>
<path d="M8.25 14.3215C8.25 10.914 8.25 9.21027 9.305 8.15152C10.3587 7.09277 12.055 7.09277 15.45 7.09277H19.05C22.4437 7.09277 24.1412 7.09277 25.1962 8.15152C26.2512 9.21027 26.25 10.914 26.25 14.3215V20.3465C26.25 23.754 26.25 25.4578 25.1962 26.5165C24.1412 27.5753 22.4437 27.5753 19.05 27.5753H15.45C12.0562 27.5753 10.3587 27.5753 9.305 26.5165C8.25 25.4578 8.25 23.754 8.25 20.3465V14.3215Z" fill="#1A73E8"/>
</svg>
