<svg width="36" height="37" viewBox="0 0 36 37" fill="none" xmlns="http://www.w3.org/2000/svg">
<path d="M31.5 26.2534V13.8784H4.5V26.2534C4.5 27.7453 5.09263 29.176 6.14752 30.2309C7.20242 31.2858 8.63316 31.8784 10.125 31.8784H25.875C27.3668 31.8784 28.7976 31.2858 29.8525 30.2309C30.9074 29.176 31.5 27.7453 31.5 26.2534ZM13.4933 18.9364C13.4933 19.3831 13.3158 19.8114 13 20.1273C12.6841 20.4431 12.2558 20.6205 11.8091 20.6205C11.3625 20.6205 10.9341 20.4431 10.6183 20.1273C10.3024 19.8114 10.125 19.3831 10.125 18.9364C10.125 18.4898 10.3024 18.0614 10.6183 17.7456C10.9341 17.4297 11.3625 17.2523 11.8091 17.2523C12.2558 17.2523 12.6841 17.4297 13 17.7456C13.3158 18.0614 13.4933 18.4898 13.4933 18.9364ZM13.4933 24.5614C13.4933 25.0081 13.3158 25.4364 13 25.7523C12.6841 26.0681 12.2558 26.2455 11.8091 26.2455C11.3625 26.2455 10.9341 26.0681 10.6183 25.7523C10.3024 25.4364 10.125 25.0081 10.125 24.5614C10.125 24.1148 10.3024 23.6864 10.6183 23.3706C10.9341 23.0547 11.3625 22.8773 11.8091 22.8773C12.2558 22.8773 12.6841 23.0547 13 23.3706C13.3158 23.6864 13.4933 24.1148 13.4933 24.5614ZM19.6852 18.9364C19.6852 19.3831 19.5078 19.8114 19.192 20.1273C18.8761 20.4431 18.4478 20.6205 18.0011 20.6205C17.5545 20.6205 17.1261 20.4431 16.8103 20.1273C16.4944 19.8114 16.317 19.3831 16.317 18.9364C16.317 18.4898 16.4944 18.0614 16.8103 17.7456C17.1261 17.4297 17.5545 17.2523 18.0011 17.2523C18.4478 17.2523 18.8761 17.4297 19.192 17.7456C19.5078 18.0614 19.6852 18.4898 19.6852 18.9364ZM19.6852 24.5614C19.6852 25.0081 19.5078 25.4364 19.192 25.7523C18.8761 26.0681 18.4478 26.2455 18.0011 26.2455C17.5545 26.2455 17.1261 26.0681 16.8103 25.7523C16.4944 25.4364 16.317 25.0081 16.317 24.5614C16.317 24.1148 16.4944 23.6864 16.8103 23.3706C17.1261 23.0547 17.5545 22.8773 18.0011 22.8773C18.4478 22.8773 18.8761 23.0547 19.192 23.3706C19.5078 23.6864 19.6852 24.1148 19.6852 24.5614ZM25.8682 18.9364C25.8682 19.3831 25.6908 19.8114 25.375 20.1273C25.0591 20.4431 24.6308 20.6205 24.1841 20.6205C23.7375 20.6205 23.3091 20.4431 22.9933 20.1273C22.6774 19.8114 22.5 19.3831 22.5 18.9364C22.5 18.4898 22.6774 18.0614 22.9933 17.7456C23.3091 17.4297 23.7375 17.2523 24.1841 17.2523C24.6308 17.2523 25.0591 17.4297 25.375 17.7456C25.6908 18.0614 25.8682 18.4898 25.8682 18.9364ZM31.5 10.5034C31.5 9.01158 30.9074 7.58083 29.8525 6.52594C28.7976 5.47105 27.3668 4.87842 25.875 4.87842H10.125C8.63316 4.87842 7.20242 5.47105 6.14752 6.52594C5.09263 7.58083 4.5 9.01158 4.5 10.5034V11.6284H31.5V10.5034Z" fill="#1A73E8"/>
</svg>
