<svg width="70" height="70" viewBox="0 0 70 70" fill="none" xmlns="http://www.w3.org/2000/svg">
<g clip-path="url(#clip0_49_502)">
<path d="M70 35C70 44.2826 66.3125 53.185 59.7487 59.7487C53.185 66.3125 44.2826 70 35 70C25.7174 70 16.815 66.3125 10.2513 59.7487C3.68749 53.185 0 44.2826 0 35C0 25.7174 3.68749 16.815 10.2513 10.2513C16.815 3.68749 25.7174 0 35 0C44.2826 0 53.185 3.68749 59.7487 10.2513C66.3125 16.815 70 25.7174 70 35ZM23.4237 20.3263C23.013 19.9155 22.4559 19.6847 21.875 19.6847C21.2941 19.6847 20.737 19.9155 20.3263 20.3263C19.9155 20.737 19.6847 21.2941 19.6847 21.875C19.6847 22.4559 19.9155 23.013 20.3263 23.4237L31.9069 35L20.3263 46.5762C20.1229 46.7796 19.9615 47.0211 19.8515 47.2868C19.7414 47.5526 19.6847 47.8374 19.6847 48.125C19.6847 48.4126 19.7414 48.6974 19.8515 48.9632C19.9615 49.2289 20.1229 49.4704 20.3263 49.6738C20.737 50.0845 21.2941 50.3153 21.875 50.3153C22.1626 50.3153 22.4474 50.2586 22.7132 50.1485C22.9789 50.0385 23.2204 49.8771 23.4237 49.6738L35 38.0931L46.5762 49.6738C46.7796 49.8771 47.0211 50.0385 47.2868 50.1485C47.5526 50.2586 47.8374 50.3153 48.125 50.3153C48.4126 50.3153 48.6974 50.2586 48.9632 50.1485C49.2289 50.0385 49.4704 49.8771 49.6738 49.6738C49.8771 49.4704 50.0385 49.2289 50.1485 48.9632C50.2586 48.6974 50.3153 48.4126 50.3153 48.125C50.3153 47.8374 50.2586 47.5526 50.1485 47.2868C50.0385 47.0211 49.8771 46.7796 49.6738 46.5762L38.0931 35L49.6738 23.4237C49.8771 23.2204 50.0385 22.9789 50.1485 22.7132C50.2586 22.4474 50.3153 22.1626 50.3153 21.875C50.3153 21.5874 50.2586 21.3026 50.1485 21.0368C50.0385 20.7711 49.8771 20.5296 49.6738 20.3263C49.4704 20.1229 49.2289 19.9615 48.9632 19.8515C48.6974 19.7414 48.4126 19.6847 48.125 19.6847C47.8374 19.6847 47.5526 19.7414 47.2868 19.8515C47.0211 19.9615 46.7796 20.1229 46.5762 20.3263L35 31.9069L23.4237 20.3263Z" fill="#B02B0D"/>
</g>
<defs>
<clipPath id="clip0_49_502">
<rect width="70" height="70" fill="white"/>
</clipPath>
</defs>
</svg>
