<svg width="32" height="36" viewBox="0 0 32 36" fill="none" xmlns="http://www.w3.org/2000/svg">
<path d="M19.3998 18.0635L21.6 20.275M19.3998 18.0635C20.2651 17.1953 20.8 15.9976 20.8 14.675C20.8 12.024 18.651 9.875 16 9.875C13.3489 9.875 11.2 12.024 11.2 14.675C11.2 17.326 13.3489 19.475 16 19.475C17.3283 19.475 18.5307 18.9355 19.3998 18.0635Z" stroke="#A9A9A9" stroke-width="2" stroke-linecap="round"/>
<path d="M4.79995 23.0208C3.76402 20.3745 3.19995 17.5571 3.19995 14.9043C3.19995 7.70842 8.93071 1.875 16 1.875C23.0693 1.875 28.8 7.70842 28.8 14.9043C28.8 22.0438 24.7147 30.3749 18.3406 33.3541C16.8548 34.0486 15.1451 34.0486 13.6593 33.3541C11.6235 32.4026 9.82126 30.9053 8.31097 29.075" stroke="#A9A9A9" stroke-width="2" stroke-linecap="round"/>
</svg>
