<svg width="34" height="35" viewBox="0 0 34 35" fill="none" xmlns="http://www.w3.org/2000/svg">
<path d="M18.996 3.93857C17.7159 3.41956 16.2839 3.41956 15.0038 3.93857L11.9013 5.19657L25.49 10.4807L30.2698 8.63482C30.0733 8.47317 29.8536 8.34186 29.6182 8.24524L18.996 3.93857ZM31.1666 10.5657L18.0624 15.6289V18.8872C18.9226 17.9631 19.9642 17.2263 21.122 16.723C22.2798 16.2196 23.5291 15.9605 24.7916 15.9618C27.2665 15.9618 29.5119 16.9379 31.1666 18.526V10.5657ZM15.9374 15.6289V22.6343C15.7017 23.4594 15.5825 24.3135 15.5833 25.1716C15.5833 26.0513 15.7065 26.9027 15.9374 27.7074V31.1032C15.6187 31.0362 15.3063 30.9419 15.0038 30.8212L4.38167 26.5146C3.92413 26.3292 3.53234 26.0115 3.25648 25.6022C2.98062 25.1928 2.83325 24.7104 2.83325 24.2167V10.5672L15.9374 15.6289ZM3.73 8.63482L16.9999 13.7617L22.549 11.6169L9.02975 6.36107L4.38167 8.24524C4.13989 8.34346 3.92267 8.47332 3.73 8.63482ZM32.5833 25.1702C32.5833 23.1037 31.7623 21.1218 30.3011 19.6606C28.8399 18.1994 26.8581 17.3785 24.7916 17.3785C22.7251 17.3785 20.7433 18.1994 19.282 19.6606C17.8208 21.1218 16.9999 23.1037 16.9999 25.1702C16.9999 27.2366 17.8208 29.2185 19.282 30.6797C20.7433 32.1409 22.7251 32.9618 24.7916 32.9618C26.8581 32.9618 28.8399 32.1409 30.3011 30.6797C31.7623 29.2185 32.5833 27.2366 32.5833 25.1702ZM24.8511 20.2147L24.9729 20.2359L25.0622 20.2642L25.1585 20.3138L25.2251 20.3592L28.8348 23.9603L28.9155 24.0595C29.0088 24.1958 29.0515 24.3605 29.0362 24.525C29.0209 24.6895 28.9486 24.8435 28.8318 24.9604C28.715 25.0772 28.561 25.1495 28.3965 25.1648C28.232 25.1801 28.0673 25.1374 27.9309 25.0441L27.8318 24.9633L25.4999 22.6301V30.1299L25.4886 30.2574C25.4627 30.3989 25.3944 30.5292 25.2927 30.631C25.1909 30.7327 25.0606 30.8011 24.9191 30.8269L24.7916 30.8382L24.6641 30.8269C24.5226 30.8011 24.3923 30.7327 24.2905 30.631C24.1888 30.5292 24.1204 30.3989 24.0946 30.2574L24.0833 30.1285L24.0818 22.6315L21.7514 24.9633L21.6523 25.0441C21.534 25.1257 21.3936 25.1694 21.2499 25.1694C21.1062 25.1694 20.9659 25.1257 20.8476 25.0441L20.7484 24.9633L20.6677 24.8642C20.586 24.7459 20.5423 24.6055 20.5423 24.4618C20.5423 24.3181 20.586 24.1778 20.6677 24.0595L20.7484 23.9603L24.3085 20.4017L24.3878 20.3379L24.4927 20.2784L24.6103 20.2359L24.6952 20.2189L24.7746 20.2118L24.8511 20.2147Z" fill="#1A73E8"/>
</svg>
