<svg width="30" height="30" viewBox="0 0 30 30" fill="none" xmlns="http://www.w3.org/2000/svg">
<path d="M2.55553 1H27.4442C28.3033 1 28.9997 1.69771 28.9997 2.55844L29 5.03017C29.0002 5.44364 28.8362 5.84018 28.5444 6.13253L18.5664 16.1299C18.2748 16.4221 18.1108 16.8187 18.1108 17.232V27.0593C18.1108 28.0733 17.1598 28.8174 16.1781 28.5715L13.067 27.7921C12.3745 27.6187 11.8887 26.9952 11.8887 26.2799V17.232C11.8887 16.8187 11.7248 16.4221 11.4331 16.1299L1.4556 6.13244C1.16388 5.84015 1 5.44369 1 5.03032V2.55864C1 1.69784 1.69643 1 2.55553 1Z" stroke="#A9A9A9" stroke-width="2" stroke-linecap="round" stroke-linejoin="round"/>
</svg>
