<svg width="29" height="29" viewBox="0 0 29 29" fill="none" xmlns="http://www.w3.org/2000/svg">
<path d="M12.5061 0.5C10.7587 0.5 9.08294 1.19414 7.84737 2.42971C6.61179 3.66529 5.91765 5.34108 5.91765 7.08845C5.91765 8.83581 6.61179 10.5116 7.84737 11.7472C9.08294 12.9828 10.7587 13.6769 12.5061 13.6769C14.2535 13.6769 15.9293 12.9828 17.1648 11.7472C18.4004 10.5116 19.0946 8.83581 19.0946 7.08845C19.0946 5.34108 18.4004 3.66529 17.1648 2.42971C15.9293 1.19414 14.2535 0.5 12.5061 0.5ZM4.28537 15.324C3.85152 15.3221 3.42156 15.4058 3.02017 15.5705C2.61878 15.7352 2.25388 15.9775 1.94641 16.2836C1.63894 16.5897 1.39496 16.9535 1.22849 17.3542C1.06201 17.7548 0.976314 18.1844 0.976318 18.6182C0.976318 21.4035 2.34836 23.5036 4.4929 24.8723C6.6045 26.218 9.45071 26.8538 12.5061 26.8538C13.0947 26.8538 13.6745 26.8302 14.2455 26.783C14.1137 26.2124 14.1223 25.6184 14.2703 25.0519C14.4183 24.4854 14.7014 23.9631 15.0954 23.5299L15.993 22.5301C16.4015 22.0773 16.924 21.7423 17.506 21.56C18.088 21.3778 18.7083 21.355 19.3021 21.4941L20.5951 21.8005C21.2177 21.2866 21.5949 20.6804 21.7678 19.954L20.9146 19.1206C20.4697 18.6856 20.1614 18.1301 20.0277 17.5224C19.894 16.9147 19.9406 16.2811 20.1619 15.6995L20.3035 15.324H4.28537ZM21.7036 16.2826L22.1697 15.0473C22.5947 13.9256 23.9189 13.3722 25.0357 13.8482L25.6748 14.1216C26.4538 14.4543 27.0979 15.0572 27.2346 15.8676C27.9873 20.3559 24.0919 26.7401 19.6084 28.3691C18.7981 28.6623 17.9235 28.435 17.2284 27.9639L16.6585 27.5769C16.4245 27.4193 16.2275 27.2128 16.0811 26.9717C15.9346 26.7305 15.8423 26.4605 15.8103 26.1802C15.7784 25.8999 15.8076 25.6161 15.896 25.3482C15.9845 25.0803 16.1299 24.8347 16.3225 24.6285L17.2201 23.6287C17.431 23.3965 17.7 23.2248 17.9994 23.1313C18.2988 23.0378 18.6177 23.0258 18.9233 23.0967L20.941 23.5744C22.5409 22.5751 23.3985 21.1696 23.5138 19.3578L22.0676 17.9429C21.8516 17.7318 21.7021 17.4622 21.6374 17.1672C21.5727 16.8722 21.5957 16.5647 21.7036 16.2826Z" fill="white"/>
</svg>
