<svg width="29" height="34" viewBox="0 0 29 34" fill="none" xmlns="http://www.w3.org/2000/svg">
<path d="M14.5 13.875C17.8137 13.875 20.5 11.1887 20.5 7.875C20.5 4.56129 17.8137 1.875 14.5 1.875C11.1863 1.875 8.5 4.56129 8.5 7.875C8.5 11.1887 11.1863 13.875 14.5 13.875Z" stroke="#A9A9A9" stroke-width="2"/>
<path d="M26.4963 25.875C26.5 25.6287 26.5 25.3785 26.5 25.125C26.5 21.3971 21.1275 18.375 14.5 18.375C7.87258 18.375 2.5 21.3971 2.5 25.125C2.5 28.853 2.5 31.875 14.5 31.875C17.8465 31.875 20.2597 31.64 22 31.2201" stroke="#A9A9A9" stroke-width="2" stroke-linecap="round"/>
</svg>
