<svg width="35" height="35" viewBox="0 0 35 35" fill="none" xmlns="http://www.w3.org/2000/svg">
<g clip-path="url(#clip0_149_37)">
<path d="M-0.227783 13.4424V7.86891C-0.227771 7.49423 -0.123368 7.12697 0.0737143 6.80831C0.270797 6.48966 0.552763 6.23221 0.887987 6.06486L5.59304 3.71233C5.87275 3.57269 6.1811 3.5 6.49372 3.5C6.80635 3.5 7.1147 3.57269 7.39441 3.71233L12.0995 6.06486C12.4347 6.23221 12.7167 6.48966 12.9137 6.80831C13.1108 7.12697 13.2152 7.49423 13.2152 7.86891V13.4424C13.215 13.8168 13.1104 14.1838 12.9134 14.5022C12.7163 14.8206 12.4345 15.0778 12.0995 15.2451L7.39441 17.5976C7.1147 17.7373 6.80635 17.81 6.49372 17.81C6.1811 17.81 5.87275 17.7373 5.59304 17.5976L0.887987 15.2451C0.552967 15.0778 0.271136 14.8206 0.0740677 14.5022C-0.123001 14.1838 -0.227521 13.8168 -0.227783 13.4424ZM1.85992 8.002C1.78048 8.16123 1.76743 8.34546 1.82363 8.5143C1.87983 8.68314 2.00068 8.82281 2.1597 8.90268L5.82157 10.735V14.6872C5.82157 14.8655 5.89239 15.0364 6.01844 15.1625C6.14449 15.2885 6.31546 15.3594 6.49372 15.3594C6.67199 15.3594 6.84295 15.2885 6.96901 15.1625C7.09506 15.0364 7.16587 14.8655 7.16587 14.6872V10.735L10.8278 8.90402C10.9068 8.86448 10.9772 8.80976 11.035 8.743C11.0929 8.67623 11.137 8.59872 11.1649 8.5149C11.1928 8.43108 11.2039 8.34258 11.1976 8.25446C11.1913 8.16634 11.1677 8.08033 11.1282 8.00133C11.0887 7.92233 11.0339 7.85189 10.9672 7.79403C10.9004 7.73618 10.8229 7.69204 10.7391 7.66414C10.6553 7.63624 10.5668 7.62513 10.4786 7.63143C10.3905 7.63773 10.3045 7.66133 10.2255 7.70087L6.49372 9.56811L2.76194 7.70087C2.68295 7.66138 2.59695 7.63784 2.50885 7.6316C2.42076 7.62536 2.3323 7.63654 2.24853 7.66451C2.16476 7.69247 2.08732 7.73667 2.02064 7.79458C1.95396 7.85249 1.89934 7.92297 1.85992 8.002ZM13.9586 5.94925C14.3502 6.51278 14.5599 7.18268 14.5595 7.86891V13.441C14.5595 14.0652 14.3857 14.6769 14.0576 15.2078C13.7294 15.7387 13.2599 16.1678 12.7017 16.4469L7.99665 18.7994C7.53001 19.0327 7.01545 19.1542 6.49372 19.1542C5.972 19.1542 5.45744 19.0327 4.99079 18.7994L1.11652 16.865V25.1069C1.11658 25.8602 1.39772 26.5863 1.90492 27.1433C2.41213 27.7002 3.1089 28.0478 3.85889 28.1181C4.0137 29.0606 4.49798 29.9175 5.2255 30.5364C5.95302 31.1552 6.87655 31.4957 7.83166 31.4973C8.78676 31.499 9.71144 31.1615 10.441 30.5452C11.1706 29.9288 11.6578 29.0735 11.8158 28.1316H14.6146C14.7719 29.0729 15.2579 29.928 15.9862 30.5448C16.7146 31.1615 17.638 31.5 18.5924 31.5C19.5468 31.5 20.4703 31.1615 21.1986 30.5448C21.927 29.928 22.413 29.0729 22.5702 28.1316H24.9779C25.3752 28.1316 25.7686 28.0533 26.1357 27.9012C26.5027 27.7491 26.8362 27.5262 27.1171 27.2452C27.398 26.9642 27.6208 26.6306 27.7727 26.2635C27.9246 25.8963 28.0027 25.5029 28.0025 25.1055V17.8302C28.0023 17.3824 27.9027 16.9402 27.7108 16.5356L25.4269 11.7123C25.1818 11.1948 24.7949 10.7575 24.3111 10.4512C23.8273 10.1449 23.2665 9.98228 22.6939 9.98215H20.6089V8.97393C20.6089 8.17173 20.2902 7.40239 19.723 6.83516C19.1557 6.26792 18.3864 5.94925 17.5842 5.94925H13.9586ZM24.3057 22.753H25.9861V24.7695H24.3057C24.0383 24.7695 23.7819 24.6632 23.5928 24.4742C23.4037 24.2851 23.2975 24.0286 23.2975 23.7612C23.2975 23.4938 23.4037 23.2374 23.5928 23.0483C23.7819 22.8592 24.0383 22.753 24.3057 22.753ZM23.6053 12.5767L25.5599 16.7037H20.6089V11.9986H22.6926C22.8839 11.9984 23.0713 12.0527 23.2329 12.155C23.3945 12.2574 23.5237 12.4036 23.6053 12.5767ZM9.85448 27.4581C9.85448 27.7229 9.80232 27.9851 9.70098 28.2297C9.59965 28.4744 9.45112 28.6967 9.26387 28.8839C9.07663 29.0712 8.85433 29.2197 8.60969 29.321C8.36504 29.4224 8.10283 29.4745 7.83803 29.4745C7.57322 29.4745 7.31101 29.4224 7.06636 29.321C6.82171 29.2197 6.59942 29.0712 6.41218 28.8839C6.22493 28.6967 6.0764 28.4744 5.97507 28.2297C5.87373 27.9851 5.82157 27.7229 5.82157 27.4581C5.82157 26.9233 6.03402 26.4104 6.41218 26.0322C6.79034 25.6541 7.30323 25.4416 7.83803 25.4416C8.37282 25.4416 8.88571 25.6541 9.26387 26.0322C9.64203 26.4104 9.85448 26.9233 9.85448 27.4581ZM18.5924 25.4416C19.1272 25.4416 19.6401 25.6541 20.0183 26.0322C20.3964 26.4104 20.6089 26.9233 20.6089 27.4581C20.6089 27.9929 20.3964 28.5058 20.0183 28.8839C19.6401 29.2621 19.1272 29.4745 18.5924 29.4745C18.0576 29.4745 17.5447 29.2621 17.1666 28.8839C16.7884 28.5058 16.576 27.9929 16.576 27.4581C16.576 26.9233 16.7884 26.4104 17.1666 26.0322C17.5447 25.6541 18.0576 25.4416 18.5924 25.4416Z" fill="#1A73E8"/>
</g>
<defs>
<clipPath id="clip0_149_37">
<rect width="34" height="34" fill="white" transform="translate(0.1521 0.5)"/>
</clipPath>
</defs>
</svg>
