<svg width="34" height="34" viewBox="0 0 34 34" fill="none" xmlns="http://www.w3.org/2000/svg">
<path d="M8.0593 10.533C4.36979 11.3678 2.52503 11.7852 2.08613 13.1966C1.64723 14.6079 2.90488 16.0786 5.42015 19.0198L6.07088 19.7808C6.78564 20.6166 7.14302 21.0345 7.30379 21.5515C7.46457 22.0686 7.41054 22.6261 7.30247 23.7414L7.2041 24.7566C6.82382 28.6809 6.63368 30.643 7.78272 31.5153C8.93176 32.3875 10.659 31.5922 14.1135 30.0018L15.0072 29.5902C15.9888 29.1382 16.4796 28.9122 17 28.9122C17.5203 28.9122 18.0111 29.1382 18.9927 29.5902L19.8864 30.0018C23.3409 31.5922 25.0682 32.3875 26.2173 31.5153C27.3663 30.643 27.1761 28.6809 26.7959 24.7566M28.5798 19.0198C31.0952 16.0786 32.3528 14.6079 31.9139 13.1966C31.475 11.7852 29.6301 11.3678 25.9407 10.533L24.9861 10.3171C23.9376 10.0798 23.4135 9.96124 22.9926 9.64171C22.5716 9.32218 22.3017 8.83789 21.7617 7.86934L21.2702 6.98755C19.3703 3.57918 18.4203 1.875 17 1.875C15.5796 1.875 14.6297 3.57919 12.7297 6.98756" stroke="#A9A9A9" stroke-width="2" stroke-linecap="round"/>
</svg>
