<svg width="36" height="37" viewBox="0 0 36 37" fill="none" xmlns="http://www.w3.org/2000/svg">
<circle cx="18.0923" cy="18.3213" r="10.9927" fill="#0088CC"/>
<path d="M18 4.37793C10.272 4.37793 4 10.6499 4 18.3779C4 26.1059 10.272 32.3779 18 32.3779C25.728 32.3779 32 26.1059 32 18.3779C32 10.6499 25.728 4.37793 18 4.37793ZM24.496 13.8979C24.286 16.1099 23.376 21.4859 22.914 23.9639C22.718 25.0139 22.326 25.3639 21.962 25.4059C21.15 25.4759 20.534 24.8739 19.75 24.3559C18.518 23.5439 17.818 23.0399 16.628 22.2559C15.242 21.3459 16.138 20.8419 16.936 20.0299C17.146 19.8199 20.73 16.5579 20.8 16.2639C20.8097 16.2194 20.8084 16.1732 20.7962 16.1293C20.784 16.0853 20.7613 16.0451 20.73 16.0119C20.646 15.9419 20.534 15.9699 20.436 15.9839C20.31 16.0119 18.35 17.3139 14.528 19.8899C13.968 20.2679 13.464 20.4639 13.016 20.4499C12.512 20.4359 11.56 20.1699 10.846 19.9319C9.964 19.6519 9.278 19.4979 9.334 19.0079C9.362 18.7559 9.712 18.5039 10.37 18.2379C14.458 16.4599 17.174 15.2839 18.532 14.7239C22.424 13.0999 23.222 12.8199 23.754 12.8199C23.866 12.8199 24.132 12.8479 24.3 12.9879C24.44 13.0999 24.482 13.2539 24.496 13.3659C24.482 13.4499 24.51 13.7019 24.496 13.8979Z" fill="white"/>
</svg>
