<svg width="30" height="31" viewBox="0 0 30 31" fill="none" xmlns="http://www.w3.org/2000/svg">
<g clip-path="url(#clip0_149_27)">
<path d="M6.25 0.378418C4.5924 0.378418 3.00269 1.0369 1.83058 2.209C0.65848 3.3811 0 4.97081 0 6.62842V24.1284C0 25.786 0.65848 27.3757 1.83058 28.5478C3.00269 29.7199 4.5924 30.3784 6.25 30.3784H23.75C25.4076 30.3784 26.9973 29.7199 28.1694 28.5478C29.3415 27.3757 30 25.786 30 24.1284V6.62842C30 4.97081 29.3415 3.3811 28.1694 2.209C26.9973 1.0369 25.4076 0.378418 23.75 0.378418H6.25ZM8.75 7.87842H21.25C21.5815 7.87842 21.8995 8.01011 22.1339 8.24453C22.3683 8.47896 22.5 8.7969 22.5 9.12842C22.5 9.45994 22.3683 9.77788 22.1339 10.0123C21.8995 10.2467 21.5815 10.3784 21.25 10.3784H8.75C8.41848 10.3784 8.10054 10.2467 7.86612 10.0123C7.6317 9.77788 7.5 9.45994 7.5 9.12842C7.5 8.7969 7.6317 8.47896 7.86612 8.24453C8.10054 8.01011 8.41848 7.87842 8.75 7.87842ZM8.75 14.1284H16.25C16.5815 14.1284 16.8995 14.2601 17.1339 14.4945C17.3683 14.729 17.5 15.0469 17.5 15.3784C17.5 15.7099 17.3683 16.0279 17.1339 16.2623C16.8995 16.4967 16.5815 16.6284 16.25 16.6284H8.75C8.41848 16.6284 8.10054 16.4967 7.86612 16.2623C7.6317 16.0279 7.5 15.7099 7.5 15.3784C7.5 15.0469 7.6317 14.729 7.86612 14.4945C8.10054 14.2601 8.41848 14.1284 8.75 14.1284ZM8.75 20.3784H21.25C21.5815 20.3784 21.8995 20.5101 22.1339 20.7445C22.3683 20.979 22.5 21.2969 22.5 21.6284C22.5 21.9599 22.3683 22.2779 22.1339 22.5123C21.8995 22.7467 21.5815 22.8784 21.25 22.8784H8.75C8.41848 22.8784 8.10054 22.7467 7.86612 22.5123C7.6317 22.2779 7.5 21.9599 7.5 21.6284C7.5 21.2969 7.6317 20.979 7.86612 20.7445C8.10054 20.5101 8.41848 20.3784 8.75 20.3784Z" fill="#1A73E8"/>
</g>
<defs>
<clipPath id="clip0_149_27">
<rect width="30" height="30" fill="white" transform="translate(0 0.378418)"/>
</clipPath>
</defs>
</svg>
