<svg width="150" height="138" viewBox="0 0 150 138" fill="none" xmlns="http://www.w3.org/2000/svg">
<g opacity="0.2">
<path d="M138.25 63.5C138.25 77.4239 132.719 90.7774 122.873 100.623C113.027 110.469 99.6739 116 85.75 116C71.8261 116 58.4726 110.469 48.6269 100.623C38.7812 90.7774 33.25 77.4239 33.25 63.5C33.25 49.5761 38.7812 36.2226 48.6269 26.3769C58.4726 16.5312 71.8261 11 85.75 11C99.6739 11 113.027 16.5312 122.873 26.3769C132.719 36.2226 138.25 49.5761 138.25 63.5Z" fill="#1A73E8"/>
<path fill-rule="evenodd" clip-rule="evenodd" d="M85.75 101C95.6956 101 105.234 97.0491 112.267 90.0165C119.299 82.9839 123.25 73.4456 123.25 63.5C123.25 53.5544 119.299 44.0161 112.267 36.9835C105.234 29.9509 95.6956 26 85.75 26C75.8044 26 66.2661 29.9509 59.2335 36.9835C52.2009 44.0161 48.25 53.5544 48.25 63.5C48.25 73.4456 52.2009 82.9839 59.2335 90.0165C66.2661 97.0491 75.8044 101 85.75 101ZM85.75 116C92.6444 116 99.4713 114.642 105.841 112.004C112.21 109.365 117.998 105.498 122.873 100.623C127.748 95.748 131.615 89.9605 134.254 83.5909C136.892 77.2213 138.25 70.3944 138.25 63.5C138.25 56.6056 136.892 49.7787 134.254 43.4091C131.615 37.0395 127.748 31.252 122.873 26.3769C117.998 21.5018 112.21 17.6347 105.841 14.9963C99.4713 12.358 92.6444 11 85.75 11C71.8261 11 58.4726 16.5312 48.6269 26.3769C38.7812 36.2226 33.25 49.5761 33.25 63.5C33.25 77.4239 38.7812 90.7774 48.6269 100.623C58.4726 110.469 71.8261 116 85.75 116Z" fill="#1A73E8"/>
</g>
<path fill-rule="evenodd" clip-rule="evenodd" d="M41.5297 21.875C36.3455 26.9828 32.3826 33.1962 29.9371 40.0508C27.4917 46.9055 26.6268 54.2241 27.4072 61.46C27.4799 62.4319 27.1712 63.394 26.5467 64.1423C25.9222 64.8906 25.0309 65.3663 24.0616 65.4687C23.0923 65.5711 22.1213 65.2921 21.3542 64.6908C20.5871 64.0895 20.0843 63.2131 19.9522 62.2475C19.0521 53.8902 20.0517 45.4375 22.8763 37.5207C25.701 29.6038 30.2777 22.4275 36.2647 16.5275C58.2922 -5.20004 93.8272 -4.84754 115.63 17.2625C137.432 39.3725 137.29 74.9 115.255 96.6275C105.053 106.701 91.3619 112.454 77.0272 112.692C71.6073 112.792 66.2014 112.107 60.9772 110.66C60.0185 110.395 59.2041 109.761 58.7132 108.896C58.2223 108.031 58.0952 107.006 58.3597 106.047C58.6243 105.089 59.2589 104.274 60.1239 103.783C60.9889 103.293 62.0135 103.165 62.9722 103.43C67.503 104.686 72.1915 105.279 76.8922 105.192C89.3047 104.997 101.162 100.016 109.99 91.2875C129.047 72.4925 129.205 41.7125 110.29 22.5275C91.3747 3.34246 60.5872 3.07996 41.5297 21.875Z" fill="#1A73E8"/>
<path fill-rule="evenodd" clip-rule="evenodd" d="M26.4549 66.2224C26.127 66.5898 25.7298 66.889 25.2862 67.1029C24.8426 67.3168 24.3612 67.4412 23.8696 67.4691C23.3779 67.4969 22.8855 67.4277 22.4206 67.2652C21.9557 67.1028 21.5273 66.8504 21.1599 66.5224L8.25992 55.0474C7.86337 54.7291 7.5357 54.3334 7.29684 53.8845C7.05798 53.4355 6.91293 52.9427 6.8705 52.436C6.82807 51.9292 6.88915 51.4191 7.05002 50.9367C7.21089 50.4543 7.4682 50.0097 7.8063 49.6298C8.14439 49.25 8.55621 48.9429 9.01671 48.7272C9.47722 48.5114 9.97678 48.3916 10.485 48.375C10.9933 48.3584 11.4996 48.4454 11.9732 48.6306C12.4468 48.8158 12.8778 49.0954 13.2399 49.4524L26.1399 60.9274C26.5084 61.2543 26.8088 61.6506 27.024 62.0937C27.2393 62.5368 27.3651 63.0179 27.3944 63.5096C27.4236 64.0013 27.3557 64.494 27.1945 64.9595C27.0333 65.4249 26.782 65.8541 26.4549 66.2224Z" fill="#1A73E8"/>
<path fill-rule="evenodd" clip-rule="evenodd" d="M20.6499 65.75C20.9454 66.144 21.3156 66.4759 21.7393 66.7268C22.1631 66.9777 22.6321 67.1427 23.1196 67.2123C23.6071 67.282 24.1035 67.2549 24.5806 67.1327C25.0576 67.0105 25.506 66.7955 25.8999 66.5L40.8999 55.25C41.6956 54.6533 42.2216 53.7649 42.3622 52.7803C42.5029 51.7958 42.2467 50.7956 41.6499 50C41.0532 49.2043 40.1648 48.6783 39.1802 48.5377C38.1957 48.397 37.1956 48.6533 36.3999 49.25L21.3999 60.5C20.6043 61.0967 20.0783 61.9851 19.9376 62.9697C19.797 63.9542 20.0532 64.9544 20.6499 65.75ZM74.4999 29.75C75.4945 29.75 76.4483 30.1451 77.1516 30.8484C77.8548 31.5516 78.2499 32.5054 78.2499 33.5V59.75C78.2499 60.7446 77.8548 61.6984 77.1516 62.4017C76.4483 63.1049 75.4945 63.5 74.4999 63.5C73.5054 63.5 72.5515 63.1049 71.8483 62.4017C71.145 61.6984 70.7499 60.7446 70.7499 59.75V33.5C70.7499 32.5054 71.145 31.5516 71.8483 30.8484C72.5515 30.1451 73.5054 29.75 74.4999 29.75Z" fill="#1A73E8"/>
<path fill-rule="evenodd" clip-rule="evenodd" d="M100.75 59.75C100.75 60.7446 100.355 61.6984 99.6517 62.4017C98.9484 63.1049 97.9946 63.5 97 63.5H74.5C73.5054 63.5 72.5516 63.1049 71.8483 62.4017C71.1451 61.6984 70.75 60.7446 70.75 59.75C70.75 58.7554 71.1451 57.8016 71.8483 57.0983C72.5516 56.3951 73.5054 56 74.5 56H97C97.9946 56 98.9484 56.3951 99.6517 57.0983C100.355 57.8016 100.75 58.7554 100.75 59.75Z" fill="#1A73E8"/>
</svg>
