<svg width="30" height="31" viewBox="0 0 30 31" fill="none" xmlns="http://www.w3.org/2000/svg">
<path d="M0.639404 4.9671C0.639404 3.22859 2.05037 1.81763 3.78888 1.81763H19.0125C20.751 1.81763 22.162 3.22859 22.162 4.9671V7.21672H23.7475C24.2491 7.21674 24.7408 7.35651 25.1674 7.62036C25.594 7.8842 25.9387 8.26169 26.1627 8.71047L29.0747 14.5325C29.2623 14.9068 29.3602 15.3196 29.3608 15.7383V22.5142C29.3608 23.2301 29.0764 23.9168 28.5701 24.423C28.0639 24.9293 27.3772 25.2137 26.6613 25.2137H23.8717C23.6652 26.2308 23.1134 27.1452 22.3098 27.802C21.5062 28.4588 20.5003 28.8176 19.4625 28.8176C18.4246 28.8176 17.4187 28.4588 16.6151 27.802C15.8115 27.1452 15.2597 26.2308 15.0532 25.2137H13.0735C12.867 26.2308 12.3152 27.1452 11.5116 27.802C10.708 28.4588 9.70211 28.8176 8.66426 28.8176C7.62642 28.8176 6.62048 28.4588 5.81691 27.802C5.01333 27.1452 4.46153 26.2308 4.255 25.2137H3.78888C2.95359 25.2137 2.1525 24.8819 1.56186 24.2913C0.971223 23.7006 0.639404 22.8995 0.639404 22.0642V4.9671ZM22.162 9.01642V14.4155H27.0032L24.5538 9.51314C24.479 9.36386 24.3641 9.23834 24.2221 9.15062C24.08 9.06289 23.9163 9.01643 23.7493 9.01642H22.162ZM8.66426 21.6143C7.9483 21.6143 7.26166 21.8987 6.75539 22.405C6.24913 22.9113 5.96471 23.5979 5.96471 24.3139C5.96471 25.0298 6.24913 25.7165 6.75539 26.2227C7.26166 26.729 7.9483 27.0134 8.66426 27.0134C9.38023 27.0134 10.0669 26.729 10.5731 26.2227C11.0794 25.7165 11.3638 25.0298 11.3638 24.3139C11.3638 23.5979 11.0794 22.9113 10.5731 22.405C10.0669 21.8987 9.38023 21.6143 8.66426 21.6143ZM16.7629 24.3139C16.7629 25.0298 17.0473 25.7165 17.5536 26.2227C18.0599 26.729 18.7465 27.0134 19.4625 27.0134C20.1784 27.0134 20.8651 26.729 21.3713 26.2227C21.8776 25.7165 22.162 25.0298 22.162 24.3139C22.162 23.5979 21.8776 22.9113 21.3713 22.405C20.8651 21.8987 20.1784 21.6143 19.4625 21.6143C18.7465 21.6143 18.0599 21.8987 17.5536 22.405C17.0473 22.9113 16.7629 23.5979 16.7629 24.3139Z" fill="#1A73E8"/>
</svg>
