<svg width="32" height="33" viewBox="0 0 32 33" fill="none" xmlns="http://www.w3.org/2000/svg">
<path d="M1.33325 9.96175C1.33325 8.74618 1.81614 7.58039 2.67568 6.72085C3.53522 5.8613 4.70101 5.37842 5.91658 5.37842H26.0833C27.2988 5.37842 28.4646 5.8613 29.3242 6.72085C30.1837 7.58039 30.6666 8.74618 30.6666 9.96175V22.7951C30.6666 24.0107 30.1837 25.1764 29.3242 26.036C28.4646 26.8955 27.2988 27.3784 26.0833 27.3784H5.91658C4.70101 27.3784 3.53522 26.8955 2.67568 26.036C1.81614 25.1764 1.33325 24.0107 1.33325 22.7951V9.96175ZM15.0833 9.04508H5.91658C5.67347 9.04508 5.44031 9.14166 5.2684 9.31357C5.0965 9.48548 4.99992 9.71864 4.99992 9.96175C4.99992 10.2049 5.0965 10.438 5.2684 10.6099C5.44031 10.7818 5.67347 10.8784 5.91658 10.8784H15.0833C15.3264 10.8784 15.5595 10.7818 15.7314 10.6099C15.9033 10.438 15.9999 10.2049 15.9999 9.96175C15.9999 9.71864 15.9033 9.48548 15.7314 9.31357C15.5595 9.14166 15.3264 9.04508 15.0833 9.04508ZM20.5833 12.7118H5.91658C5.67347 12.7118 5.44031 12.8083 5.2684 12.9802C5.0965 13.1521 4.99992 13.3853 4.99992 13.6284C4.99992 13.8715 5.0965 14.1047 5.2684 14.2766C5.44031 14.4485 5.67347 14.5451 5.91658 14.5451H20.5833C20.8264 14.5451 21.0595 14.4485 21.2314 14.2766C21.4033 14.1047 21.4999 13.8715 21.4999 13.6284C21.4999 13.3853 21.4033 13.1521 21.2314 12.9802C21.0595 12.8083 20.8264 12.7118 20.5833 12.7118ZM6.83325 18.2118C6.34702 18.2118 5.88071 18.4049 5.53689 18.7487C5.19307 19.0925 4.99992 19.5589 4.99992 20.0451V21.8784C4.99992 22.3646 5.19307 22.831 5.53689 23.1748C5.88071 23.5186 6.34702 23.7118 6.83325 23.7118H14.1666C14.6528 23.7118 15.1191 23.5186 15.4629 23.1748C15.8068 22.831 15.9999 22.3646 15.9999 21.8784V20.0451C15.9999 19.5589 15.8068 19.0925 15.4629 18.7487C15.1191 18.4049 14.6528 18.2118 14.1666 18.2118H6.83325Z" fill="#1A73E8"/>
</svg>
