<svg width="34" height="35" viewBox="0 0 34 35" fill="none" xmlns="http://www.w3.org/2000/svg">
<path d="M18.996 3.93857C17.7159 3.41956 16.284 3.41956 15.0038 3.93857L11.9013 5.19658L25.49 10.4807L30.2698 8.63483C30.0733 8.47317 29.8536 8.34186 29.6182 8.24524L18.996 3.93857ZM31.1666 10.5657L18.0624 15.6289V18.8872C18.9226 17.9631 19.9642 17.2263 21.122 16.723C22.2798 16.2196 23.5291 15.9605 24.7916 15.9618C27.2665 15.9618 29.5119 16.9379 31.1666 18.526V10.5657ZM15.9374 15.6289V22.6343C15.7017 23.4594 15.5825 24.3135 15.5833 25.1716C15.5833 26.0513 15.7065 26.9027 15.9374 27.7074V31.1032C15.6187 31.0362 15.3063 30.9419 15.0038 30.8212L4.38167 26.5146C3.92413 26.3292 3.53234 26.0115 3.25648 25.6022C2.98062 25.1928 2.83325 24.7104 2.83325 24.2167V10.5672L15.9374 15.6289ZM3.73 8.63483L16.9999 13.7617L22.549 11.6169L9.02975 6.36107L4.38167 8.24524C4.13989 8.34346 3.92267 8.47333 3.73 8.63483ZM24.7916 32.9618C26.8581 32.9618 28.8399 32.1409 30.3011 30.6797C31.7623 29.2185 32.5833 27.2366 32.5833 25.1702C32.5833 23.1037 31.7623 21.1218 30.3011 19.6606C28.8399 18.1994 26.8581 17.3785 24.7916 17.3785C22.7251 17.3785 20.7433 18.1994 19.282 19.6606C17.8208 21.1218 16.9999 23.1037 16.9999 25.1702C16.9999 27.2366 17.8208 29.2185 19.282 30.6797C20.7433 32.1409 22.7251 32.9618 24.7916 32.9618ZM28.5401 21.8353C28.6729 21.7023 28.8531 21.6275 29.0411 21.6274C29.229 21.6273 29.4094 21.7018 29.5424 21.8346C29.6754 21.9674 29.7502 22.1477 29.7503 22.3356C29.7504 22.5236 29.6759 22.7039 29.5431 22.8369L23.8764 28.5036C23.8106 28.5695 23.7325 28.6219 23.6464 28.6576C23.5603 28.6933 23.4681 28.7117 23.3749 28.7117C23.2817 28.7117 23.1895 28.6933 23.1034 28.6576C23.0174 28.6219 22.9392 28.5695 22.8734 28.5036L20.0401 25.6702C19.9743 25.6044 19.9222 25.5262 19.8866 25.4402C19.8511 25.3542 19.8328 25.262 19.8329 25.1689C19.8329 25.0759 19.8513 24.9837 19.887 24.8978C19.9227 24.8118 19.9749 24.7337 20.0408 24.668C20.1067 24.6022 20.1848 24.55 20.2708 24.5145C20.3568 24.4789 20.449 24.4607 20.5421 24.4607C20.6352 24.4608 20.7273 24.4792 20.8133 24.5149C20.8992 24.5505 20.9773 24.6028 21.0431 24.6687L23.3749 27.0019L28.5401 21.8353Z" fill="#1A73E8"/>
</svg>
