<svg width="24" height="23" viewBox="0 0 24 23" fill="none" xmlns="http://www.w3.org/2000/svg">
<path d="M15.7587 1.62887L14.1332 2.51973L15.7587 3.41058L16.6477 5.03945L17.5367 3.41058L19.1622 2.51973L17.5367 1.62887L16.6477 0L15.7587 1.62887ZM9.57541 2.55737C8.08459 2.86049 6.69329 3.53302 5.52857 4.51356C4.36385 5.49409 3.46281 6.75139 2.90772 8.17064C2.35264 9.58989 2.1612 11.1259 2.35089 12.6383C2.54057 14.1508 3.10534 15.5915 3.99362 16.829C4.8819 18.0665 6.06539 19.0613 7.43602 19.7225C8.80665 20.3837 10.3208 20.6904 11.8401 20.6144C13.3594 20.5384 14.8355 20.0823 16.1336 19.2876C17.4318 18.4929 18.5105 17.385 19.2715 16.0651C16.5682 16.044 13.9829 14.9532 12.0788 13.0302C10.1748 11.1072 9.10635 8.50806 9.10643 5.79913C9.10643 4.68128 9.25555 3.58967 9.57541 2.55737ZM0 11.5025C0 5.20257 5.09619 0.0958157 11.383 0.0958157H13.3569L12.3688 1.80681C11.7097 2.94748 11.383 4.30486 11.383 5.79913C11.3829 6.97814 11.6433 8.14256 12.1455 9.20875C12.6478 10.2749 13.3794 11.2164 14.2879 11.9656C15.1964 12.7148 16.2592 13.2531 17.3999 13.5418C18.5407 13.8306 19.7311 13.8625 20.8856 13.6355L22.8002 13.2625L22.1821 15.1172C20.6739 19.6434 16.4109 22.9091 11.383 22.9091C5.09619 22.9091 0 17.8023 0 11.5025ZM21.0586 5.13299L22.099 7.0379L24 8.08046L22.099 9.12303L21.0586 11.0279L20.0182 9.12303L18.1172 8.08046L20.0182 7.0379L21.0586 5.13299Z" fill="#1A73E8"/>
</svg>
