<svg width="32" height="33" viewBox="0 0 32 33" fill="none" xmlns="http://www.w3.org/2000/svg">
<path d="M22.4086 22.8333V21.1667H19.126L19.2566 21.428C19.4766 21.868 19.5913 22.352 19.5913 22.844V23.1667H22.0753C22.1637 23.1667 22.2485 23.1315 22.311 23.069C22.3735 23.0065 22.4086 22.9217 22.4086 22.8333ZM22.4086 19.1667H18.126L17.89 18.6947C17.6922 18.301 17.4154 17.9524 17.0766 17.6707V17.1667H22.0766C22.1651 17.1667 22.2498 17.2018 22.3123 17.2643C22.3749 17.3268 22.41 17.4116 22.41 17.5L22.4086 19.1667ZM19.5913 26.8333V25.1667H22.0753C22.6942 25.1667 23.2876 24.9208 23.7252 24.4832C24.1628 24.0457 24.4086 23.4522 24.4086 22.8333V17.5C24.4086 16.8812 24.1628 16.2877 23.7252 15.8501C23.2876 15.4125 22.6942 15.1667 22.0753 15.1667H14.4993C13.926 14.748 13.218 14.5 12.4526 14.5H7.07531V5.16667C7.07531 4.45942 7.35626 3.78115 7.85636 3.28105C8.35646 2.78095 9.03473 2.5 9.74198 2.5H17.742V10.5C17.742 11.2072 18.0229 11.8855 18.523 12.3856C19.0231 12.8857 19.7014 13.1667 20.4086 13.1667H28.4086V26.5C28.4086 27.2072 28.1277 27.8855 27.6276 28.3856C27.1275 28.8857 26.4492 29.1667 25.742 29.1667H18.566C18.8895 28.8702 19.1478 28.5097 19.3243 28.108C19.5008 27.7062 19.5918 27.2721 19.5913 26.8333ZM19.742 10.5V3.16667L27.742 11.1667H20.4086C20.2318 11.1667 20.0623 11.0964 19.9372 10.9714C19.8122 10.8464 19.742 10.6768 19.742 10.5ZM3.59131 17.972C3.59131 16.7907 4.54865 15.8333 5.72998 15.8333H12.4526C13.634 15.8333 14.5913 16.7907 14.5913 17.972V18.2787H15.058C15.7513 18.2787 16.3873 18.6707 16.698 19.292L18.0646 22.0253C18.1913 22.2787 18.258 22.5587 18.258 22.844V26.8333C18.258 27.8467 17.4366 28.6667 16.4246 28.6667H15.7366C15.6009 29.1913 15.2947 29.6559 14.8662 29.9876C14.4377 30.3193 13.9112 30.4993 13.3693 30.4993C12.8274 30.4993 12.3009 30.3193 11.8724 29.9876C11.4439 29.6559 11.1377 29.1913 11.002 28.6667H9.62598C9.48616 29.2075 9.16539 29.6841 8.71704 30.0173C8.26869 30.3505 7.71978 30.5201 7.16163 30.498C6.60347 30.4759 6.06971 30.2633 5.64915 29.8957C5.22858 29.5281 4.94655 29.0275 4.84998 28.4773C4.47444 28.3085 4.15578 28.0347 3.93244 27.6888C3.7091 27.3429 3.59063 26.9397 3.59131 26.528V17.972ZM14.5913 19.5V21.944H16.658L15.6046 19.8373C15.5536 19.7361 15.4755 19.6509 15.379 19.5914C15.2825 19.5318 15.1714 19.5002 15.058 19.5H14.5913ZM7.25798 26.8333C7.09411 26.8279 6.93082 26.8555 6.77783 26.9145C6.62484 26.9735 6.48528 27.0626 6.36744 27.1766C6.24961 27.2906 6.15591 27.4272 6.09191 27.5781C6.02792 27.7291 5.99494 27.8914 5.99494 28.0553C5.99494 28.2193 6.02792 28.3816 6.09191 28.5325C6.15591 28.6835 6.24961 28.82 6.36744 28.934C6.48528 29.0481 6.62484 29.1372 6.77783 29.1962C6.93082 29.2551 7.09411 29.2827 7.25798 29.2773C7.57509 29.2669 7.8757 29.1335 8.09632 28.9055C8.31694 28.6775 8.44027 28.3726 8.44027 28.0553C8.44027 27.7381 8.31694 27.4332 8.09632 27.2052C7.8757 26.9771 7.57509 26.8438 7.25798 26.8333ZM12.1473 28.056C12.1419 28.2199 12.1695 28.3832 12.2285 28.5361C12.2874 28.6891 12.3766 28.8287 12.4906 28.9465C12.6046 29.0644 12.7412 29.1581 12.8921 29.2221C13.0431 29.2861 13.2054 29.319 13.3693 29.319C13.5333 29.319 13.6956 29.2861 13.8465 29.2221C13.9975 29.1581 14.134 29.0644 14.248 28.9465C14.362 28.8287 14.4512 28.6891 14.5101 28.5361C14.5691 28.3832 14.5967 28.2199 14.5913 28.056C14.5808 27.7389 14.4475 27.4383 14.2195 27.2177C13.9914 26.997 13.6866 26.8737 13.3693 26.8737C13.052 26.8737 12.7472 26.997 12.5191 27.2177C12.2911 27.4383 12.1578 27.7389 12.1473 28.056Z" fill="#1A73E8"/>
</svg>
