<svg width="22" height="19" viewBox="0 0 22 19" fill="none" xmlns="http://www.w3.org/2000/svg">
<path d="M2.59176 1.01827C2.71116 0.898561 2.85301 0.803585 3.00918 0.738783C3.16535 0.67398 3.33276 0.640625 3.50184 0.640625C3.67092 0.640625 3.83834 0.67398 3.99451 0.738783C4.15068 0.803585 4.29252 0.898561 4.41193 1.01827L11.2144 7.82336L18.017 1.01827C18.1365 0.898754 18.2784 0.80395 18.4345 0.73927C18.5907 0.674589 18.758 0.641298 18.9271 0.641298C19.0961 0.641298 19.2634 0.674589 19.4196 0.73927C19.5757 0.80395 19.7176 0.898754 19.8371 1.01827C19.9567 1.13778 20.0515 1.27967 20.1161 1.43582C20.1808 1.59197 20.2141 1.75934 20.2141 1.92836C20.2141 2.09738 20.1808 2.26474 20.1161 2.42089C20.0515 2.57705 19.9567 2.71893 19.8371 2.83844L13.0321 9.64096L19.8371 16.4435C19.9567 16.563 20.0515 16.7049 20.1161 16.861C20.1808 17.0172 20.2141 17.1845 20.2141 17.3536C20.2141 17.5226 20.1808 17.69 20.1161 17.8461C20.0515 18.0023 19.9567 18.1441 19.8371 18.2637C19.7176 18.3832 19.5757 18.478 19.4196 18.5427C19.2634 18.6073 19.0961 18.6406 18.9271 18.6406C18.758 18.6406 18.5907 18.6073 18.4345 18.5427C18.2784 18.478 18.1365 18.3832 18.017 18.2637L11.2144 11.4586L4.41193 18.2637C4.29242 18.3832 4.15053 18.478 3.99438 18.5427C3.83823 18.6073 3.67086 18.6406 3.50184 18.6406C3.33282 18.6406 3.16546 18.6073 3.00931 18.5427C2.85315 18.478 2.71127 18.3832 2.59176 18.2637C2.47224 18.1441 2.37744 18.0023 2.31276 17.8461C2.24808 17.69 2.21478 17.5226 2.21478 17.3536C2.21478 17.1845 2.24808 17.0172 2.31276 16.861C2.37744 16.7049 2.47224 16.563 2.59176 16.4435L9.39684 9.64096L2.59176 2.83844C2.47205 2.71904 2.37707 2.57719 2.31227 2.42102C2.24747 2.26485 2.21411 2.09744 2.21411 1.92836C2.21411 1.75928 2.24747 1.59186 2.31227 1.43569C2.37707 1.27952 2.47205 1.13767 2.59176 1.01827Z" fill="#2D2D2D"/>
</svg>
