<svg width="12" height="12" viewBox="0 0 12 12" fill="none" xmlns="http://www.w3.org/2000/svg">
<g clip-path="url(#clip0_362_333)">
<path d="M6.73652 1.17446C6.66228 1.04514 6.55523 0.937689 6.42618 0.862968C6.29712 0.788248 6.15064 0.748901 6.00152 0.748901C5.8524 0.748901 5.70592 0.788248 5.57687 0.862968C5.44781 0.937689 5.34076 1.04514 5.26652 1.17446L0.12377 9.92472C-0.21898 10.5082 0.19202 11.25 0.85877 11.25H11.1435C11.8103 11.25 12.222 10.5075 11.8785 9.92472L6.73652 1.17446ZM6.00002 3.74996C6.40127 3.74996 6.71552 4.09646 6.67502 4.49621L6.41252 7.12646C6.4037 7.22979 6.35642 7.32605 6.28004 7.39619C6.20365 7.46633 6.10372 7.50525 6.00002 7.50525C5.89632 7.50525 5.79639 7.46633 5.72 7.39619C5.64362 7.32605 5.59634 7.22979 5.58752 7.12646L5.32502 4.49621C5.31559 4.40189 5.32603 4.30664 5.35565 4.21659C5.38528 4.12654 5.43344 4.0437 5.49703 3.9734C5.56062 3.9031 5.63823 3.84689 5.72486 3.80841C5.81149 3.76993 5.90523 3.75002 6.00002 3.74996ZM6.00152 8.24996C6.20043 8.24996 6.3912 8.32898 6.53185 8.46963C6.6725 8.61029 6.75152 8.80105 6.75152 8.99996C6.75152 9.19888 6.6725 9.38964 6.53185 9.53029C6.3912 9.67095 6.20043 9.74996 6.00152 9.74996C5.80261 9.74996 5.61184 9.67095 5.47119 9.53029C5.33054 9.38964 5.25152 9.19888 5.25152 8.99996C5.25152 8.80105 5.33054 8.61029 5.47119 8.46963C5.61184 8.32898 5.80261 8.24996 6.00152 8.24996Z" fill="#FF4C4C"/>
</g>
<defs>
<clipPath id="clip0_362_333">
<rect width="12" height="12" fill="white"/>
</clipPath>
</defs>
</svg>
