<svg width="14" height="14" viewBox="0 0 14 14" fill="none" xmlns="http://www.w3.org/2000/svg">
<path d="M1.66666 1H12.3332C12.7014 1 12.9999 1.29842 12.9999 1.66657L13 2.72377C13.0001 2.90062 12.9298 3.07022 12.8047 3.19526L8.52847 7.4713C8.40347 7.59629 8.33321 7.76589 8.33321 7.94269V12.146C8.33321 12.5797 7.92561 12.8979 7.50489 12.7927L6.17158 12.4594C5.87478 12.3852 5.66659 12.1186 5.66659 11.8126V7.94269C5.66659 7.76589 5.59635 7.59629 5.47133 7.4713L1.19526 3.19522C1.07023 3.07021 1 2.90064 1 2.72383V1.66666C1 1.29848 1.29847 1 1.66666 1Z" stroke="#05388B" stroke-width="2" stroke-linecap="round" stroke-linejoin="round"/>
</svg>
