<svg width="10" height="10" viewBox="0 0 10 10" fill="none" xmlns="http://www.w3.org/2000/svg">
<g clip-path="url(#clip0_85_1495)">
<path d="M5 9.375C3.83968 9.375 2.72688 8.91406 1.90641 8.09359C1.08594 7.27312 0.625 6.16032 0.625 5C0.625 3.83968 1.08594 2.72688 1.90641 1.90641C2.72688 1.08594 3.83968 0.625 5 0.625C6.16032 0.625 7.27312 1.08594 8.09359 1.90641C8.91406 2.72688 9.375 3.83968 9.375 5C9.375 6.16032 8.91406 7.27312 8.09359 8.09359C7.27312 8.91406 6.16032 9.375 5 9.375ZM5 10C6.32608 10 7.59785 9.47322 8.53553 8.53553C9.47322 7.59785 10 6.32608 10 5C10 3.67392 9.47322 2.40215 8.53553 1.46447C7.59785 0.526784 6.32608 0 5 0C3.67392 0 2.40215 0.526784 1.46447 1.46447C0.526784 2.40215 0 3.67392 0 5C0 6.32608 0.526784 7.59785 1.46447 8.53553C2.40215 9.47322 3.67392 10 5 10Z" fill="#8CA1C4"/>
<path d="M2.9037 2.9037C2.93273 2.8746 2.96721 2.85151 3.00518 2.83575C3.04314 2.82 3.08384 2.81189 3.12495 2.81189C3.16605 2.81189 3.20675 2.82 3.24472 2.83575C3.28268 2.85151 3.31717 2.8746 3.3462 2.9037L4.99995 4.55807L6.6537 2.9037C6.68275 2.87464 6.71725 2.8516 6.75521 2.83587C6.79317 2.82015 6.83386 2.81205 6.87495 2.81205C6.91604 2.81205 6.95673 2.82015 6.99469 2.83587C7.03265 2.8516 7.06714 2.87464 7.0962 2.9037C7.12525 2.93275 7.1483 2.96725 7.16402 3.00521C7.17975 3.04317 7.18784 3.08386 7.18784 3.12495C7.18784 3.16604 7.17975 3.20673 7.16402 3.24469C7.1483 3.28265 7.12525 3.31714 7.0962 3.3462L5.44182 4.99995L7.0962 6.6537C7.12525 6.68275 7.1483 6.71725 7.16402 6.75521C7.17975 6.79317 7.18784 6.83386 7.18784 6.87495C7.18784 6.91604 7.17975 6.95673 7.16402 6.99469C7.1483 7.03265 7.12525 7.06714 7.0962 7.0962C7.06714 7.12525 7.03265 7.1483 6.99469 7.16402C6.95673 7.17975 6.91604 7.18784 6.87495 7.18784C6.83386 7.18784 6.79317 7.17975 6.75521 7.16402C6.71725 7.1483 6.68275 7.12525 6.6537 7.0962L4.99995 5.44182L3.3462 7.0962C3.31714 7.12525 3.28265 7.1483 3.24469 7.16402C3.20673 7.17975 3.16604 7.18784 3.12495 7.18784C3.08386 7.18784 3.04317 7.17975 3.00521 7.16402C2.96725 7.1483 2.93275 7.12525 2.9037 7.0962C2.87464 7.06714 2.8516 7.03265 2.83587 6.99469C2.82015 6.95673 2.81205 6.91604 2.81205 6.87495C2.81205 6.83386 2.82015 6.79317 2.83587 6.75521C2.8516 6.71725 2.87464 6.68275 2.9037 6.6537L4.55807 4.99995L2.9037 3.3462C2.8746 3.31717 2.85151 3.28268 2.83575 3.24472C2.82 3.20675 2.81189 3.16605 2.81189 3.12495C2.81189 3.08384 2.82 3.04314 2.83575 3.00518C2.85151 2.96721 2.8746 2.93273 2.9037 2.9037Z" fill="#8CA1C4"/>
</g>
<defs>
<clipPath id="clip0_85_1495">
<rect width="10" height="10" fill="white"/>
</clipPath>
</defs>
</svg>
